<?xml version="1.0" encoding="UTF-8" standalone="no"?>
<!-- Created with Inkscape (http://www.inkscape.org/) -->

<svg
   width="210mm"
   height="297mm"
   viewBox="0 0 210 297"
   version="1.1"
   id="svg5"
   inkscape:version="1.1.2 (b8e25be8, 2022-02-05)"
   sodipodi:docname="Wheggo_v1_frame_logo2.svg"
   xmlns:inkscape="http://www.inkscape.org/namespaces/inkscape"
   xmlns:sodipodi="http://sodipodi.sourceforge.net/DTD/sodipodi-0.dtd"
   xmlns="http://www.w3.org/2000/svg"
   xmlns:svg="http://www.w3.org/2000/svg">
  <sodipodi:namedview
     id="namedview7"
     pagecolor="#ffffff"
     bordercolor="#666666"
     borderopacity="1.0"
     inkscape:pageshadow="2"
     inkscape:pageopacity="0.0"
     inkscape:pagecheckerboard="0"
     inkscape:document-units="mm"
     showgrid="false"
     inkscape:zoom="0.71433856"
     inkscape:cx="319.87633"
     inkscape:cy="433.26795"
     inkscape:window-width="1312"
     inkscape:window-height="795"
     inkscape:window-x="0"
     inkscape:window-y="23"
     inkscape:window-maximized="0"
     inkscape:current-layer="layer1" />
  <defs
     id="defs2">
    <inkscape:path-effect
       effect="fillet_chamfer"
       id="path-effect1088"
       is_visible="true"
       lpeversion="1"
       satellites_param="F,0,0,1,0,4,0,1 @ F,0,0,1,0,4,0,1 @ F,0,0,1,0,4,0,1 @ F,0,0,1,0,4,0,1"
       unit="mm"
       method="auto"
       mode="F"
       radius="4"
       chamfer_steps="1"
       flexible="false"
       use_knot_distance="true"
       apply_no_radius="true"
       apply_with_radius="true"
       only_selected="false"
       hide_knots="false" />
  </defs>
  <g
     inkscape:label="Layer 1"
     inkscape:groupmode="layer"
     id="layer1">
    <path
       style="vector-effect:non-scaling-stroke;fill:none;fill-rule:evenodd;stroke:#ff0000;stroke-width:0.000712369;stroke-miterlimit:4;stroke-dasharray:none;stroke-opacity:1;-inkscape-stroke:hairline"
       id="rect31"
       width="160"
       height="28"
       x="22.523809"
       y="40.333332"
       inkscape:path-effect="#path-effect1088"
       d="M 26.523809,40.333332 H 178.52381 a 4,4 45 0 1 4,4 l 0,20 a 4,4 135 0 1 -4,4 H 26.523809 a 4,4 45 0 1 -4,-4 l 0,-20 a 4,4 135 0 1 4,-4 z"
       sodipodi:type="rect" />
    <g
       aria-label="Wheggo NYUAD IM"
       id="text1819"
       style="font-size:10.5833px;line-height:1.25;font-family:Cairo;-inkscape-font-specification:'Cairo, @wght=500';font-variation-settings:'wght' 500;fill:none;stroke:#000000;stroke-width:0.264583">
      <path
         d="M 93.042509,62.857143 91.60318,55.554667 h 0.963081 l 1.174746,6.466396 h 0.296332 l 1.428746,-6.41348 h 1.079496 l 1.428746,6.41348 h 0.296332 l 1.174746,-6.466396 h 0.963085 l -1.449916,7.302476 H 97.328745 L 95.93175,56.390747 h 0.137583 l -1.396996,6.466396 z"
         id="path3699" />
      <path
         d="m 101.44218,62.857143 v -7.577642 h 0.88899 v 2.561158 q 0.27517,-0.126999 0.73025,-0.253999 0.45508,-0.126999 0.86783,-0.126999 0.73025,0 1.12183,0.264582 0.39158,0.253999 0.52917,0.825497 0.14816,0.571499 0.14816,1.502829 v 2.804574 h -0.89958 v -2.762241 q 0,-0.666748 -0.0847,-1.068913 -0.0741,-0.402165 -0.29634,-0.582082 -0.22225,-0.179916 -0.69849,-0.179916 -0.381,0 -0.78317,0.105833 -0.39158,0.09525 -0.635,0.1905 v 4.296819 z"
         id="path3701" />
      <path
         d="m 109.05223,62.962976 q -0.80433,0 -1.27,-0.306915 -0.46566,-0.306916 -0.67733,-0.910164 -0.20108,-0.603248 -0.20108,-1.502829 0,-0.99483 0.27517,-1.608661 0.27516,-0.613832 0.77258,-0.888997 0.508,-0.285749 1.20649,-0.285749 1.0795,0 1.61925,0.592664 0.55033,0.582082 0.55033,1.873244 l -0.0423,0.656165 h -3.46074 q 0.0106,0.783164 0.29633,1.195913 0.28575,0.402165 1.03716,0.402165 0.29634,0 0.65617,-0.01058 0.35983,-0.02117 0.70908,-0.04233 0.35983,-0.02117 0.60325,-0.04233 l 0.0212,0.698497 q -0.254,0.04233 -0.62441,0.08467 -0.37042,0.04233 -0.762,0.0635 -0.381,0.03175 -0.70908,0.03175 z m -1.22766,-3.090323 h 2.59291 q 0,-0.93133 -0.29634,-1.301746 -0.29633,-0.380999 -0.96308,-0.380999 -0.64558,0 -0.99483,0.391582 -0.33866,0.391582 -0.33866,1.291163 z"
         id="path3703" />
      <path
         d="m 114.59589,65.333636 q -0.82549,0 -1.33349,-0.137583 -0.508,-0.137583 -0.75142,-0.486832 -0.23283,-0.349249 -0.23283,-0.952497 0,-0.306916 0.0953,-0.529165 0.0952,-0.211666 0.27517,-0.391582 0.17991,-0.1905 0.45508,-0.391582 -0.13758,-0.105833 -0.22225,-0.296333 -0.0741,-0.201082 -0.0741,-0.444498 0,-0.116417 0.127,-0.370416 0.127,-0.264582 0.24341,-0.465665 -0.22225,-0.105833 -0.41275,-0.285749 -0.17991,-0.190499 -0.29633,-0.507998 -0.11641,-0.317499 -0.11641,-0.804331 0,-0.973664 0.55033,-1.386412 0.56091,-0.423332 1.46049,-0.423332 0.28575,0 0.60325,0.04233 0.3175,0.04233 0.49742,0.08467 l 1.59807,-0.03175 v 0.730248 l -0.97366,-0.02117 q 0.14817,0.148167 0.24342,0.391582 0.0953,0.232833 0.0953,0.613832 0,0.698498 -0.23284,1.09008 -0.23283,0.391582 -0.69849,0.550331 -0.45509,0.15875 -1.15358,0.15875 -0.0741,0 -0.254,-0.01058 -0.16934,-0.02117 -0.254,-0.03175 -0.0529,0.137582 -0.11642,0.328082 -0.0635,0.179916 -0.0635,0.243416 0,0.201082 0.0741,0.306915 0.0741,0.09525 0.34925,0.127 0.27517,0.03175 0.85725,0.03175 0.75141,0 1.2065,0.127 0.45508,0.126999 0.64558,0.465665 0.20108,0.328082 0.20108,0.96308 0,0.910164 -0.635,1.312329 -0.62441,0.402166 -1.75683,0.402166 z m 0,-0.740831 q 0.77259,0 1.13242,-0.22225 0.35983,-0.211666 0.35983,-0.698498 0,-0.370415 -0.127,-0.550331 -0.11642,-0.169333 -0.39158,-0.232833 -0.27517,-0.05292 -0.74083,-0.05292 -0.10584,0 -0.27517,0 -0.15875,-0.01058 -0.33866,-0.01058 -0.16934,-0.01058 -0.3175,-0.02117 -0.13759,-0.01058 -0.1905,-0.01058 -0.3175,0.222249 -0.43392,0.402165 -0.11641,0.179916 -0.11641,0.476248 0,0.328083 0.11641,0.529165 0.127,0.201083 0.4445,0.296333 0.3175,0.09525 0.87841,0.09525 z m -0.23283,-4.23332 q 0.635,0 0.89958,-0.243416 0.26458,-0.253999 0.26458,-0.846664 0,-0.592665 -0.26458,-0.846664 -0.26458,-0.253999 -0.89958,-0.253999 -0.59266,0 -0.85725,0.253999 -0.25399,0.253999 -0.25399,0.846664 0,0.592665 0.25399,0.846664 0.26459,0.243416 0.85725,0.243416 z"
         id="path3705" />
      <path
         d="m 120.07358,65.333636 q -0.8255,0 -1.3335,-0.137583 -0.50799,-0.137583 -0.75141,-0.486832 -0.23283,-0.349249 -0.23283,-0.952497 0,-0.306916 0.0952,-0.529165 0.0953,-0.211666 0.27516,-0.391582 0.17992,-0.1905 0.45509,-0.391582 -0.13759,-0.105833 -0.22225,-0.296333 -0.0741,-0.201082 -0.0741,-0.444498 0,-0.116417 0.127,-0.370416 0.127,-0.264582 0.24342,-0.465665 -0.22225,-0.105833 -0.41275,-0.285749 -0.17992,-0.190499 -0.29633,-0.507998 -0.11642,-0.317499 -0.11642,-0.804331 0,-0.973664 0.55033,-1.386412 0.56092,-0.423332 1.4605,-0.423332 0.28575,0 0.60325,0.04233 0.3175,0.04233 0.49741,0.08467 l 1.59808,-0.03175 v 0.730248 l -0.97366,-0.02117 q 0.14816,0.148167 0.24341,0.391582 0.0952,0.232833 0.0952,0.613832 0,0.698498 -0.23283,1.09008 -0.23283,0.391582 -0.6985,0.550331 -0.45508,0.15875 -1.15358,0.15875 -0.0741,0 -0.254,-0.01058 -0.16933,-0.02117 -0.254,-0.03175 -0.0529,0.137582 -0.11641,0.328082 -0.0635,0.179916 -0.0635,0.243416 0,0.201082 0.0741,0.306915 0.0741,0.09525 0.34925,0.127 0.27516,0.03175 0.85725,0.03175 0.75141,0 1.20649,0.127 0.45508,0.126999 0.64558,0.465665 0.20109,0.328082 0.20109,0.96308 0,0.910164 -0.635,1.312329 -0.62442,0.402166 -1.75683,0.402166 z m 0,-0.740831 q 0.77258,0 1.13241,-0.22225 0.35984,-0.211666 0.35984,-0.698498 0,-0.370415 -0.127,-0.550331 -0.11642,-0.169333 -0.39159,-0.232833 -0.27516,-0.05292 -0.74083,-0.05292 -0.10583,0 -0.27516,0 -0.15875,-0.01058 -0.33867,-0.01058 -0.16933,-0.01058 -0.3175,-0.02117 -0.13758,-0.01058 -0.1905,-0.01058 -0.3175,0.222249 -0.43391,0.402165 -0.11642,0.179916 -0.11642,0.476248 0,0.328083 0.11642,0.529165 0.127,0.201083 0.4445,0.296333 0.3175,0.09525 0.87841,0.09525 z m -0.23283,-4.23332 q 0.635,0 0.89958,-0.243416 0.26458,-0.253999 0.26458,-0.846664 0,-0.592665 -0.26458,-0.846664 -0.26458,-0.253999 -0.89958,-0.253999 -0.59267,0 -0.85725,0.253999 -0.254,0.253999 -0.254,0.846664 0,0.592665 0.254,0.846664 0.26458,0.243416 0.85725,0.243416 z"
         id="path3707" />
      <path
         d="m 125.458,62.962976 q -0.889,0 -1.397,-0.306915 -0.49741,-0.306916 -0.6985,-0.920747 -0.20108,-0.624415 -0.20108,-1.587495 0,-0.910164 0.22225,-1.502829 0.22225,-0.603248 0.73025,-0.888997 0.508,-0.296332 1.34408,-0.296332 0.84666,0 1.35466,0.296332 0.508,0.285749 0.73025,0.888997 0.22225,0.592665 0.22225,1.502829 0,0.96308 -0.21167,1.587495 -0.20108,0.613831 -0.6985,0.920747 -0.49741,0.306915 -1.39699,0.306915 z m 0,-0.77258 q 0.59266,0 0.88899,-0.201083 0.29634,-0.211666 0.39159,-0.666748 0.0953,-0.455082 0.0953,-1.174746 0,-0.709081 -0.127,-1.132413 -0.11642,-0.423332 -0.41275,-0.603248 -0.29633,-0.179917 -0.83608,-0.179917 -0.52917,0 -0.83608,0.179917 -0.29634,0.179916 -0.42333,0.603248 -0.11642,0.423332 -0.11642,1.132413 0,0.719664 0.0952,1.174746 0.0953,0.455082 0.39158,0.666748 0.29633,0.201083 0.889,0.201083 z"
         id="path3709" />
      <path
         d="m 131.46882,62.857143 v -7.302476 h 1.61924 l 2.69874,6.360563 h 0.20108 v -6.360563 h 0.93134 v 7.302476 h -1.5875 l -2.73049,-6.371146 h -0.20108 v 6.371146 z"
         id="path3711" />
      <path
         d="M 140.18665,62.857143 V 59.83032 l -2.30716,-4.275653 h 1.03716 l 1.72508,3.333739 1.74624,-3.333739 h 1.03717 l -2.30716,4.275653 v 3.026823 z"
         id="path3713" />
      <path
         d="m 146.91729,62.962976 q -0.81491,0 -1.39699,-0.232832 -0.5715,-0.232833 -0.87842,-0.751414 -0.30691,-0.518582 -0.30691,-1.375829 v -5.048234 h 0.93133 v 5.079983 q 0,0.804331 0.43391,1.164163 0.43392,0.349249 1.21708,0.349249 0.8255,0 1.25941,-0.349249 0.4445,-0.359832 0.4445,-1.164163 v -5.079983 h 0.93133 v 5.048234 q 0,0.846664 -0.30691,1.375829 -0.30692,0.518581 -0.89958,0.751414 -0.58208,0.232832 -1.42875,0.232832 z"
         id="path3715" />
      <path
         d="m 150.41937,62.857143 1.9685,-7.302476 h 1.93674 l 1.96849,7.302476 h -0.93133 l -0.508,-1.799161 h -3.00565 l -0.508,1.799161 z m 1.60866,-2.603491 h 2.64583 l -1.05833,-3.915821 h -0.52917 z"
         id="path3717" />
      <path
         d="m 157.36897,62.857143 v -7.302476 h 2.63524 q 0.81491,0 1.34408,0.264582 0.53974,0.253999 0.84666,0.719665 0.3175,0.465665 0.4445,1.121829 0.13758,0.645582 0.13758,1.439329 0,0.793748 -0.127,1.481662 -0.127,0.677331 -0.4445,1.195913 -0.30691,0.507998 -0.84666,0.793747 -0.52916,0.285749 -1.34408,0.285749 z m 0.93133,-0.814914 h 1.70391 q 0.56091,0 0.91016,-0.232832 0.34925,-0.243416 0.53975,-0.656165 0.20108,-0.412749 0.27517,-0.93133 0.0847,-0.529165 0.0847,-1.12183 0,-0.582081 -0.0847,-1.079497 -0.0741,-0.497415 -0.27517,-0.86783 -0.1905,-0.370416 -0.55033,-0.571498 -0.34925,-0.211666 -0.89958,-0.211666 h -1.70391 z"
         id="path3719" />
      <path
         d="m 166.52599,62.857143 v -7.302476 h 0.93133 v 7.302476 z"
         id="path3721" />
      <path
         d="m 169.17182,62.857143 v -7.302476 h 1.651 l 1.93674,5.958397 1.95791,-5.958397 h 1.651 v 7.302476 h -0.93133 V 56.59183 h -0.15875 l -2.01083,6.011314 h -0.99483 L 170.2619,56.59183 h -0.15875 v 6.265313 z"
         id="path3723" />
    </g>
    <g
       aria-label="Sikka 2022"
       id="text1819-9"
       style="font-size:10.5833px;line-height:1.25;font-family:Cairo;-inkscape-font-specification:'Cairo, @wght=500';font-variation-settings:'wght' 500;fill:none;stroke:#000000;stroke-width:0.264583">
      <path
         d="m 33.03037,55.02678 q -0.338665,0 -0.772581,-0.04233 -0.423332,-0.03175 -0.846664,-0.08467 -0.423332,-0.0635 -0.740831,-0.105833 l 0.08467,-0.761997 q 0.317499,0.03175 0.719664,0.07408 0.412749,0.04233 0.814914,0.07408 0.402166,0.03175 0.687915,0.03175 0.740831,0 1.111246,-0.328083 0.370416,-0.338665 0.370416,-1.047746 0,-0.380999 -0.148167,-0.613832 -0.148166,-0.232832 -0.497415,-0.359832 -0.338665,-0.137583 -0.920747,-0.253999 -0.772581,-0.15875 -1.280579,-0.380999 -0.507998,-0.222249 -0.761998,-0.624415 -0.243416,-0.402165 -0.243416,-1.090079 0,-0.730248 0.296333,-1.164163 0.296332,-0.444499 0.836081,-0.645582 0.539748,-0.201082 1.259412,-0.201082 0.317499,0 0.730248,0.04233 0.412749,0.03175 0.814914,0.08467 0.402165,0.04233 0.687914,0.09525 l -0.0635,0.772581 q -0.317499,-0.04233 -0.719665,-0.07408 -0.402165,-0.04233 -0.783164,-0.07408 -0.370415,-0.03175 -0.603248,-0.03175 -0.751414,0 -1.132413,0.275166 -0.380999,0.275165 -0.380999,0.846663 0,0.455082 0.169333,0.687915 0.169333,0.232833 0.550332,0.370415 0.380998,0.127 0.99483,0.264583 0.560915,0.137583 0.96308,0.285749 0.402165,0.148166 0.666748,0.370416 0.264582,0.211666 0.380999,0.539748 0.126999,0.328082 0.126999,0.804331 0,0.814914 -0.296332,1.312329 -0.285749,0.497415 -0.814914,0.730247 -0.529165,0.22225 -1.259413,0.22225 z"
         id="path3680" />
      <path
         d="m 36.627865,54.93153 v -5.29165 h 0.888997 v 5.29165 z m 0,-6.41348 v -0.984246 h 0.888997 v 0.984246 z"
         id="path3682" />
      <path
         d="m 39.004973,54.93153 v -7.577643 h 0.888997 v 4.42382 l 0.793748,-0.02117 1.428745,-2.11666 h 1.015997 l -1.650995,2.444742 1.735661,2.846908 H 42.20113 l -1.492246,-2.391826 -0.814914,0.04233 v 2.349493 z"
         id="path3684" />
      <path
         d="m 44.131259,54.93153 v -7.577643 h 0.888997 v 4.42382 l 0.793747,-0.02117 1.428746,-2.11666 h 1.015996 l -1.650994,2.444742 1.735661,2.846908 h -1.015997 l -1.492245,-2.391826 -0.814914,0.04233 v 2.349493 z"
         id="path3686" />
      <path
         d="m 50.360193,55.037363 q -0.751414,0 -1.142996,-0.412749 -0.380999,-0.412748 -0.380999,-1.217079 0,-0.529165 0.179916,-0.857247 0.190499,-0.328083 0.560915,-0.497416 0.380999,-0.169332 0.920747,-0.211665 l 1.587495,-0.15875 v -0.433915 q 0,-0.518582 -0.232833,-0.730248 -0.232832,-0.211666 -0.677331,-0.211666 -0.275166,0 -0.645581,0.02117 -0.359832,0.02117 -0.730248,0.05292 -0.359832,0.03175 -0.634998,0.0635 l -0.04233,-0.677331 q 0.253999,-0.05292 0.613831,-0.105833 0.370416,-0.05292 0.761998,-0.08467 0.402165,-0.04233 0.730248,-0.04233 0.613831,0 1.005413,0.179916 0.391582,0.179916 0.571498,0.560915 0.1905,0.370416 0.1905,0.96308 v 2.645825 q 0.02117,0.22225 0.179916,0.328083 0.158749,0.09525 0.402165,0.126999 l -0.03175,0.698498 q -0.232832,0 -0.433915,-0.03175 -0.201083,-0.02117 -0.359832,-0.0635 -0.15875,-0.05292 -0.285749,-0.126999 -0.127,-0.08467 -0.243416,-0.1905 -0.201083,0.08467 -0.507999,0.179916 -0.306915,0.09525 -0.656164,0.15875 -0.349249,0.07408 -0.698498,0.07408 z m 0.158749,-0.740831 q 0.275166,0 0.571499,-0.04233 0.296332,-0.05292 0.560915,-0.127 0.264582,-0.07408 0.433915,-0.137583 v -1.650994 l -1.471079,0.137582 q -0.455082,0.04233 -0.656164,0.275166 -0.201083,0.22225 -0.201083,0.634998 0,0.423332 0.190499,0.666748 0.201083,0.243416 0.571498,0.243416 z"
         id="path3688" />
      <path
         d="m 56.843125,54.93153 v -0.772581 l 1.947327,-2.042577 q 0.444499,-0.465665 0.761998,-0.825497 0.317499,-0.359832 0.486832,-0.709081 0.169332,-0.349249 0.169332,-0.751414 0,-0.666748 -0.370415,-0.910164 -0.359832,-0.253999 -1.100663,-0.253999 -0.275166,0 -0.613832,0.04233 -0.328082,0.03175 -0.645581,0.08467 -0.306916,0.04233 -0.518582,0.09525 l -0.07408,-0.761998 q 0.232833,-0.0635 0.560915,-0.126999 0.328083,-0.0635 0.719665,-0.105833 0.391582,-0.05292 0.761997,-0.05292 1.111247,0 1.672162,0.455082 0.571498,0.444499 0.571498,1.428746 0,0.518581 -0.169333,0.941913 -0.15875,0.412749 -0.486832,0.804331 -0.317499,0.391582 -0.825497,0.878414 l -1.767411,1.777994 h 3.407822 v 0.804331 z"
         id="path3690" />
      <path
         d="m 64.998549,55.037363 q -0.613832,0 -1.09008,-0.169333 -0.476249,-0.169333 -0.814914,-0.571498 -0.328082,-0.402165 -0.497415,-1.079497 -0.169333,-0.677331 -0.169333,-1.682744 0,-1.05833 0.158749,-1.777995 0.169333,-0.719664 0.497416,-1.142996 0.338665,-0.423332 0.814914,-0.603248 0.476248,-0.179916 1.09008,-0.179916 0.634997,0 1.111246,0.179916 0.476248,0.179916 0.793747,0.603248 0.328083,0.423332 0.497416,1.142996 0.169332,0.709082 0.169332,1.777995 0,1.333496 -0.306915,2.095493 -0.306916,0.761998 -0.878414,1.09008 -0.560915,0.317499 -1.375829,0.317499 z m 0,-0.814914 q 0.391582,0 0.687914,-0.116416 0.306916,-0.127 0.507999,-0.423332 0.201082,-0.306916 0.296332,-0.825498 0.105833,-0.529165 0.105833,-1.322912 0,-0.857247 -0.09525,-1.407579 -0.09525,-0.560915 -0.296332,-0.888997 -0.190499,-0.328082 -0.497415,-0.455082 -0.296333,-0.137583 -0.709081,-0.137583 -0.412749,0 -0.719665,0.137583 -0.296332,0.127 -0.497415,0.455082 -0.201082,0.317499 -0.306915,0.878414 -0.09525,0.560915 -0.09525,1.428745 0,0.793748 0.105833,1.322913 0.105833,0.518581 0.317499,0.814914 0.211666,0.296332 0.507998,0.423332 0.296333,0.116416 0.687915,0.116416 z"
         id="path3692" />
      <path
         d="m 68.666653,54.93153 v -0.772581 l 1.947328,-2.042577 q 0.444498,-0.465665 0.761997,-0.825497 0.317499,-0.359832 0.486832,-0.709081 0.169333,-0.349249 0.169333,-0.751414 0,-0.666748 -0.370416,-0.910164 -0.359832,-0.253999 -1.100663,-0.253999 -0.275166,0 -0.613831,0.04233 -0.328083,0.03175 -0.645582,0.08467 -0.306915,0.04233 -0.518581,0.09525 l -0.07408,-0.761998 q 0.232832,-0.0635 0.560915,-0.126999 0.328082,-0.0635 0.719664,-0.105833 0.391582,-0.05292 0.761997,-0.05292 1.111247,0 1.672162,0.455082 0.571498,0.444499 0.571498,1.428746 0,0.518581 -0.169333,0.941913 -0.158749,0.412749 -0.486832,0.804331 -0.317499,0.391582 -0.825497,0.878414 l -1.767411,1.777994 h 3.407822 v 0.804331 z"
         id="path3694" />
      <path
         d="m 74.578419,54.93153 v -0.772581 l 1.947328,-2.042577 q 0.444498,-0.465665 0.761997,-0.825497 0.317499,-0.359832 0.486832,-0.709081 0.169333,-0.349249 0.169333,-0.751414 0,-0.666748 -0.370416,-0.910164 -0.359832,-0.253999 -1.100663,-0.253999 -0.275166,0 -0.613831,0.04233 -0.328083,0.03175 -0.645582,0.08467 -0.306915,0.04233 -0.518581,0.09525 l -0.07408,-0.761998 q 0.232832,-0.0635 0.560915,-0.126999 0.328082,-0.0635 0.719664,-0.105833 0.391582,-0.05292 0.761998,-0.05292 1.111246,0 1.672161,0.455082 0.571498,0.444499 0.571498,1.428746 0,0.518581 -0.169333,0.941913 -0.158749,0.412749 -0.486832,0.804331 -0.317499,0.391582 -0.825497,0.878414 l -1.767411,1.777994 h 3.407823 v 0.804331 z"
         id="path3696" />
    </g>
  </g>
</svg>
